<svg xmlns="http://www.w3.org/2000/svg" fill="#7a726f">
<style>/* svg * { transition: opacity 1s ease-out; } */ #wordmark-wrapped { opacity: 0; } @media all and (max-width: 429px){ #wordmark { opacity: 0; } #wordmark-wrapped { opacity: 1; } }</style>

<g id="signet">
	<path d="M51.735,16.759l0.281-0.255c1.377-1.249,2.164-3.03,2.164-4.887c0-1.857-0.787-3.641-2.164-4.889l-0.281-0.257L51.453,6.73
		c-1.377,1.248-2.166,3.03-2.166,4.889c0,1.855,0.789,3.638,2.166,4.887L51.735,16.759z"/>
	<path d="M35.383,24.048l0.38,0.044l0.08-0.371c0.393-1.813,0-3.724-1.078-5.235c-1.08-1.511-2.756-2.501-4.602-2.719l-0.379-0.045
		l-0.08,0.372c-0.396,1.815,0,3.723,1.076,5.234C31.863,22.84,33.539,23.832,35.383,24.048z"/>
	<path d="M16.372,31.994c1.021,0.607,2.188,0.932,3.371,0.932c0.655,0,1.306-0.099,1.936-0.29l0.362-0.112l-0.073-0.37
		c-0.37-1.82-1.496-3.409-3.093-4.359c-1.588-0.946-3.542-1.182-5.308-0.645l-0.363,0.111l0.075,0.372
		C13.65,29.454,14.778,31.043,16.372,31.994z"/>
	<path d="M11.141,43.377c0.635,0.142,1.283,0.189,1.93,0.144l0,0c1.188-0.087,2.332-0.498,3.312-1.186l0.312-0.22l-0.188-0.331
		c-0.917-1.615-2.481-2.774-4.295-3.184c-1.81-0.406-3.731-0.021-5.241,1.045l-0.312,0.22l0.188,0.329
		C7.76,41.811,9.327,42.97,11.141,43.377z"/>
	<path d="M18.312,54.913l-0.29-0.244c-1.426-1.194-3.291-1.734-5.137-1.483c-1.841,0.248-3.498,1.271-4.551,2.807l-0.215,0.312
		l0.292,0.244c1.257,1.056,2.853,1.604,4.486,1.54c0.215-0.009,0.433-0.026,0.646-0.059c1.84-0.25,3.498-1.271,4.552-2.804
		L18.312,54.913z"/>
	<path d="M31.51,64.023c-1.59,0.957-2.706,2.556-3.067,4.375l-0.072,0.377l0.364,0.107c1.019,0.305,2.104,0.359,3.145,0.158l0,0
		c0.763-0.146,1.489-0.424,2.159-0.828c1.59-0.957,2.709-2.553,3.067-4.377l0.074-0.374l-0.365-0.109
		C35.047,62.824,33.095,63.07,31.51,64.023z"/>
	<path d="M50.871,37.509l-0.307-0.147l-0.174,0.29c-1.183,1.95-1.484,4.323-0.833,6.51c0.648,2.184,2.204,4.002,4.259,4.987
		l0.307,0.146l0.174-0.289c1.181-1.95,1.484-4.322,0.832-6.507C54.479,40.314,52.925,38.496,50.871,37.509z"/>
	<path d="M53.589,21.836l-0.174-0.282L53.119,21.7c-2.007,0.989-3.512,2.789-4.127,4.938c-0.615,2.149-0.291,4.474,0.887,6.373
		l0.174,0.285l0.297-0.149c2.007-0.986,3.51-2.788,4.126-4.938C55.092,26.059,54.768,23.74,53.589,21.836z"/>
	<path d="M42.146,53.16c1.019-0.133,2.003-0.402,2.933-0.812l0.354-0.157L45.3,51.871c-0.879-2.164-2.78-3.882-5.219-4.708
		c-2.422-0.824-5.225-0.689-7.597,0.353l-0.354,0.156l0.13,0.32c0.88,2.167,2.782,3.884,5.218,4.711
		C38.953,53.205,40.566,53.365,42.146,53.16L42.146,53.16z"/>
	<path d="M28.193,60.55c0.13-0.007,0.261-0.016,0.393-0.03c2.287-0.227,4.387-1.417,5.758-3.266l0.229-0.303l-0.282-0.258
		c-1.72-1.555-3.954-2.3-6.287-2.068c-2.288,0.228-4.388,1.417-5.758,3.265l-0.228,0.305l0.28,0.258
		C23.918,59.917,26.013,60.66,28.193,60.55L28.193,60.55z"/>
	<path d="M31.32,42.544l0.344-0.161l-0.128-0.358c-0.778-2.165-2.439-3.913-4.562-4.793c-1.633-0.678-3.397-0.811-5.105-0.382
		c-0.519,0.129-1.026,0.312-1.511,0.54l-0.346,0.16l0.129,0.358c0.776,2.162,2.438,3.911,4.562,4.796
		c1.633,0.677,3.398,0.808,5.106,0.381C30.327,42.954,30.834,42.773,31.32,42.544z"/>
	<path d="M27.351,49.615l0.271-0.255l-0.228-0.292c-1.37-1.777-3.438-2.9-5.673-3.083c-1.717-0.14-3.396,0.27-4.854,1.178
		c-0.442,0.273-0.86,0.597-1.241,0.953l-0.271,0.254l0.228,0.292c1.368,1.775,3.438,2.901,5.673,3.085
		c1.717,0.14,3.396-0.271,4.854-1.179C26.551,50.293,26.971,49.972,27.351,49.615z"/>
	<path d="M27.047,31.008c1.482,1.317,3.393,2.053,5.373,2.065c0.001,0,0.001,0,0.001,0c0.308,0.003,0.621-0.015,0.928-0.048
		l0.378-0.041l-0.005-0.38c-0.021-2.301-1.021-4.497-2.739-6.023c-1.482-1.319-3.394-2.057-5.375-2.067
		c-0.309-0.002-0.62,0.014-0.926,0.046l-0.378,0.041l0.003,0.379C24.328,27.281,25.327,29.476,27.047,31.008z"/>
	<path d="M44.435,25.727l0.32,0.198l0.231-0.291c1.41-1.762,1.99-4.028,1.593-6.223c-0.396-2.195-1.742-4.135-3.688-5.323
		l-0.322-0.196l-0.231,0.29c-1.407,1.761-1.988,4.028-1.592,6.223C41.145,22.599,42.489,24.537,44.435,25.727z"/>
	<path d="M35.356,37.785l-0.339,0.039l0.009,0.285c0.065,1.926,1.104,3.736,2.854,4.976c1.688,1.189,3.836,1.747,6.052,1.562l0,0
		c0.104-0.009,0.203-0.02,0.306-0.026l0.341-0.04l-0.013-0.286c-0.062-1.925-1.104-3.737-2.854-4.975
		C39.945,38.073,37.658,37.527,35.356,37.785z"/>
	<path d="M37.642,27.246l-0.317-0.031l-0.05,0.26c-0.338,1.772,0.24,3.646,1.584,5.133c1.297,1.438,3.146,2.385,5.209,2.671l0,0
		c0.095,0.016,0.188,0.024,0.284,0.034l0.315,0.035l0.052-0.263c0.337-1.771-0.241-3.644-1.587-5.132
		C41.776,28.452,39.798,27.486,37.642,27.246z"/>
	<path d="M69.771,24.048l-0.378,0.044l-0.079-0.371c-0.396-1.813,0-3.724,1.076-5.235c1.081-1.511,2.757-2.501,4.603-2.719
		l0.377-0.045l0.08,0.372c0.396,1.815,0.002,3.723-1.076,5.234C73.291,22.84,71.615,23.832,69.771,24.048z"/>
	<path d="M88.781,31.994c-1.021,0.607-2.187,0.932-3.369,0.932c-0.656,0-1.309-0.099-1.937-0.29l-0.363-0.112l0.075-0.37
		c0.369-1.82,1.496-3.409,3.092-4.359c1.588-0.946,3.54-1.182,5.309-0.645l0.363,0.111l-0.076,0.372
		C91.505,29.454,90.378,31.043,88.781,31.994z"/>
	<path d="M94.016,43.377c-0.638,0.142-1.285,0.189-1.929,0.144l0,0c-1.188-0.087-2.336-0.498-3.314-1.186l-0.312-0.22l0.189-0.331
		c0.918-1.615,2.481-2.774,4.296-3.184c1.808-0.406,3.729-0.021,5.24,1.045l0.312,0.22l-0.188,0.329
		C97.393,41.811,95.83,42.97,94.016,43.377z"/>
	<path d="M86.843,54.913l0.289-0.244c1.428-1.194,3.291-1.734,5.139-1.483c1.839,0.248,3.495,1.271,4.549,2.807l0.218,0.312
		l-0.291,0.244c-1.262,1.056-2.854,1.604-4.49,1.54c-0.213-0.009-0.432-0.026-0.646-0.059c-1.84-0.25-3.499-1.271-4.552-2.804
		L86.843,54.913z"/>
	<path d="M73.645,64.023c1.59,0.957,2.709,2.556,3.065,4.375l0.074,0.377l-0.365,0.107c-1.021,0.305-2.104,0.359-3.146,0.158l0,0
		c-0.763-0.146-1.484-0.424-2.154-0.828c-1.594-0.957-2.709-2.553-3.07-4.377l-0.072-0.374l0.363-0.109
		C70.108,62.824,72.062,63.07,73.645,64.023z"/>
	<path d="M63.07,53.109c-0.998-0.128-1.966-0.393-2.881-0.793l-0.352-0.153l0.131-0.314c0.861-2.129,2.729-3.819,5.123-4.634
		c2.38-0.812,5.136-0.682,7.467,0.339l0.351,0.153l-0.129,0.312c-0.861,2.13-2.73,3.821-5.121,4.636
		C66.208,53.151,64.623,53.308,63.07,53.109L63.07,53.109z"/>
	<path d="M76.96,60.55c-0.129-0.007-0.26-0.016-0.391-0.03c-2.289-0.227-4.388-1.417-5.759-3.266l-0.229-0.303l0.279-0.258
		c1.723-1.555,3.956-2.3,6.289-2.068c2.289,0.228,4.387,1.417,5.76,3.265l0.229,0.305l-0.283,0.258
		C81.236,59.917,79.143,60.66,76.96,60.55C76.962,60.55,76.962,60.55,76.96,60.55z"/>
	<path d="M73.835,42.544l-0.342-0.161l0.127-0.358c0.777-2.165,2.438-3.913,4.562-4.793c1.634-0.678,3.399-0.811,5.106-0.382
		c0.521,0.129,1.025,0.312,1.512,0.54l0.344,0.16l-0.127,0.358c-0.777,2.162-2.438,3.911-4.563,4.796
		c-1.632,0.677-3.396,0.808-5.104,0.381C74.83,42.954,74.322,42.773,73.835,42.544z"/>
	<path d="M77.802,49.615l-0.268-0.255l0.226-0.292c1.368-1.777,3.438-2.9,5.675-3.083c1.715-0.14,3.396,0.27,4.854,1.178
		c0.439,0.273,0.856,0.597,1.238,0.953l0.271,0.254l-0.229,0.292c-1.367,1.775-3.438,2.901-5.672,3.085
		c-1.717,0.14-3.396-0.271-4.854-1.179C78.604,50.293,78.185,49.972,77.802,49.615z"/>
	<path d="M78.109,31.008c-1.483,1.317-3.395,2.053-5.373,2.065l0,0c-0.312,0.003-0.622-0.015-0.929-0.048l-0.38-0.041l0.005-0.38
		c0.022-2.301,1.021-4.497,2.739-6.023c1.482-1.319,3.395-2.057,5.375-2.067c0.311-0.002,0.619,0.014,0.928,0.046l0.378,0.041
		l-0.004,0.379C80.826,27.281,79.828,29.476,78.109,31.008z"/>
	<path d="M60.721,25.727L60.4,25.925l-0.231-0.291c-1.41-1.762-1.989-4.028-1.592-6.223c0.397-2.195,1.742-4.135,3.688-5.323
		l0.321-0.196l0.231,0.29c1.409,1.761,1.989,4.028,1.593,6.223C64.013,22.6,62.666,24.537,60.721,25.727z"/>
	<path d="M69.8,37.785l0.34,0.039l-0.01,0.285c-0.065,1.926-1.104,3.736-2.854,4.976c-1.688,1.189-3.835,1.747-6.049,1.562l0,0
		c-0.104-0.009-0.205-0.02-0.31-0.026l-0.338-0.04l0.01-0.286c0.064-1.925,1.104-3.737,2.854-4.975
		C65.208,38.073,67.498,37.527,69.8,37.785z"/>
	<path d="M65.973,28.281l0.348,0.006l0.021,0.289c0.135,1.966-0.736,3.917-2.393,5.352c-1.596,1.386-3.723,2.171-5.996,2.209l0,0
		c-0.104,0.001-0.209,0.001-0.312,0l-0.349-0.004l-0.021-0.29c-0.13-1.964,0.743-3.916,2.396-5.352
		C61.332,29.041,63.603,28.255,65.973,28.281z"/>
	<path d="M18.081,63.954c1.056-0.555,2.237-0.807,3.419-0.736c0.654,0.036,1.301,0.171,1.916,0.4l0.356,0.132l-0.099,0.359
		c-0.469,1.801-1.688,3.32-3.336,4.179c-1.637,0.854-3.599,0.979-5.333,0.342l-0.358-0.135l0.098-0.365
		C15.222,66.329,16.439,64.812,18.081,63.954z"/>
	<path d="M87.923,64.125c1.513,1.077,2.502,2.755,2.721,4.601l0.044,0.379l-0.371,0.08c-1.039,0.227-2.128,0.195-3.146-0.084l0,0
		c-0.748-0.203-1.447-0.537-2.086-0.992c-1.515-1.076-2.504-2.756-2.725-4.602l-0.044-0.378l0.372-0.082
		C84.49,62.658,86.417,63.054,87.923,64.125z"/>
	<path d="M99.528,33.838c-1.076,0.502-2.271,0.703-3.449,0.581c-0.652-0.067-1.289-0.231-1.895-0.487l-0.351-0.146l0.11-0.36
		c0.556-1.774,1.841-3.239,3.521-4.021c1.678-0.776,3.646-0.81,5.347-0.095l0.352,0.148l-0.113,0.361
		C102.498,31.593,101.212,33.058,99.528,33.838z"/>
	<path d="M99.74,51.296c-1.184-0.129-2.308-0.574-3.253-1.29c-0.521-0.396-0.982-0.866-1.365-1.396l-0.225-0.309l0.283-0.25
		c1.392-1.232,3.249-1.819,5.096-1.614c1.836,0.201,3.534,1.193,4.621,2.688l0.225,0.309l-0.285,0.251
		C103.442,50.913,101.583,51.501,99.74,51.296z"/>
	<path d="M89.597,21.695c-0.869,0.813-1.94,1.375-3.1,1.626c-0.643,0.14-1.3,0.182-1.951,0.126l-0.381-0.03l-0.002-0.379
		c-0.026-1.859,0.736-3.649,2.097-4.917c1.352-1.263,3.209-1.902,5.053-1.753l0.379,0.03l0.005,0.381
		C91.716,18.638,90.955,20.429,89.597,21.695z"/>
	<path d="M72.813,9.406c-0.486,1.085-1.263,2.017-2.23,2.69c-0.539,0.375-1.129,0.667-1.752,0.868l-0.365,0.117l-0.146-0.349
		c-0.74-1.706-0.726-3.651,0.041-5.346c0.762-1.684,2.229-2.992,3.984-3.562l0.362-0.117l0.151,0.349
		C73.594,5.768,73.578,7.713,72.813,9.406z"/>
	<path d="M62.119,5.407c-0.146,1.181-0.609,2.299-1.34,3.23c-0.4,0.519-0.88,0.971-1.418,1.348l-0.312,0.22l-0.243-0.286
		c-1.211-1.41-1.771-3.276-1.539-5.119c0.229-1.834,1.242-3.518,2.754-4.582L60.333,0l0.248,0.288
		C61.791,1.702,62.349,3.566,62.119,5.407z"/>
	<path d="M46.986,4.709c0.194,1.174,0.062,2.377-0.371,3.479c-0.237,0.608-0.567,1.181-0.979,1.692L45.4,10.177l-0.313-0.205
		c-1.562-1.011-2.625-2.644-2.922-4.476c-0.302-1.823,0.196-3.728,1.347-5.176l0.239-0.298l0.315,0.207
		C45.623,1.247,46.685,2.878,46.986,4.709z"/>
	<path d="M36.787,7.374c0.502,1.08,0.695,2.271,0.57,3.452c-0.066,0.647-0.232,1.288-0.49,1.892l-0.15,0.351l-0.355-0.112
		c-1.773-0.559-3.234-1.848-4.012-3.532c-0.775-1.678-0.806-3.646-0.083-5.345l0.148-0.354l0.36,0.114
		C34.549,4.402,36.007,5.689,36.787,7.374z"/>
	<path d="M23.944,14.188c0.749,0.925,1.23,2.034,1.396,3.207c0.094,0.646,0.09,1.309-0.015,1.955l-0.059,0.376l-0.375-0.021
		c-1.856-0.107-3.589-1-4.754-2.447c-1.162-1.438-1.669-3.335-1.387-5.161l0.06-0.378l0.379,0.022
		C21.048,11.852,22.778,12.743,23.944,14.188z"/>
	<path d="M83.919,14.162c-0.791,0.891-1.809,1.545-2.938,1.898c-0.624,0.196-1.273,0.299-1.935,0.306l-0.379,0.003l-0.039-0.375
		c-0.195-1.853,0.402-3.703,1.643-5.087c1.229-1.382,3.021-2.188,4.868-2.205l0.384-0.003l0.04,0.376
		C85.753,10.928,85.156,12.778,83.919,14.162z"/>
	<path d="M14.783,18.042c0.91,0.767,1.595,1.765,1.979,2.886c0.214,0.617,0.334,1.267,0.354,1.923l0.014,0.379l-0.374,0.05
		c-1.843,0.246-3.714-0.304-5.13-1.504c-1.413-1.188-2.271-2.961-2.337-4.807l-0.013-0.383l0.376-0.05
		C11.499,16.295,13.365,16.844,14.783,18.042z"/>
	<path d="M7.875,29.228c1.051,0.56,1.927,1.395,2.537,2.406c0.338,0.561,0.592,1.169,0.749,1.808l0.093,0.369L10.9,33.935
		c-1.752,0.627-3.693,0.48-5.331-0.396c-1.63-0.87-2.839-2.42-3.29-4.212l-0.092-0.372l0.354-0.127
		C4.299,28.206,6.24,28.353,7.875,29.228z"/>
	<path d="M5.435,46.031c1.179,0.16,2.289,0.644,3.211,1.386c0.513,0.409,0.959,0.893,1.327,1.438l0.214,0.315l-0.289,0.238
		c-1.428,1.189-3.302,1.724-5.142,1.465c-1.829-0.254-3.498-1.292-4.54-2.818L0,47.737l0.29-0.239
		C1.726,46.306,3.598,45.776,5.435,46.031z"/>
	<path fill="none" stroke="#7a726f" stroke-width="1.25" stroke-miterlimit="10" d="M64.05,56.433
		c-0.159,0.029-0.344,0.089-0.531,0.162c-1.658,0.537-6.673,2.521-10.94,7.354c-4.271-4.833-9.285-6.816-10.939-7.354
		c-0.191-0.073-0.373-0.133-0.533-0.162c-0.717-0.264-1.66,1.236-0.762,1.854c3.098,2.041,6.109,4.54,7.05,9.396
		c0.573,2.972,0.479,6.977,0.397,10.787c-0.136,6.539-1.293,12.908-6.688,15.396c1.502,0.393,5.858,0.755,11.479-3.059
		c5.614,3.812,9.977,3.45,11.479,3.059c-5.396-2.484-6.558-8.855-6.689-15.396c-0.076-3.812-0.178-7.815,0.397-10.787
		c0.938-4.854,3.949-7.354,7.05-9.396C65.71,57.67,64.769,56.17,64.05,56.433z"/>
	<circle fill="none" stroke="#7a726f" stroke-width="1.25" stroke-miterlimit="10" cx="52.578" cy="55.43" r="3.122"/>
</g>
<g id="wordmark-wrapped">
	<g>
		<path d="M28.775,125.77h2.686c0.561,0,1.007,0.062,1.343,0.188c0.336,0.125,0.623,0.304,0.862,0.532
			c0.271,0.26,0.467,0.562,0.593,0.905c0.125,0.348,0.188,0.708,0.188,1.088c0,0.28-0.034,0.555-0.104,0.817
			c-0.069,0.265-0.188,0.508-0.354,0.728c-0.165,0.222-0.378,0.415-0.638,0.587c-0.261,0.17-0.585,0.295-0.976,0.375v0.027
			c0.319,0.062,0.562,0.171,0.729,0.33c0.166,0.16,0.302,0.393,0.413,0.689l1.47,4.198h-1.425l-1.2-3.539
			c-0.149-0.431-0.343-0.735-0.577-0.924c-0.235-0.185-0.599-0.275-1.088-0.275h-0.6v4.738h-1.32L28.775,125.77L28.775,125.77z
			 M30.095,130.42h1.02c0.351,0,0.65-0.052,0.9-0.156c0.25-0.104,0.451-0.246,0.606-0.42c0.154-0.176,0.269-0.373,0.337-0.594
			c0.069-0.222,0.104-0.443,0.104-0.675c0-0.592-0.175-1.024-0.524-1.308c-0.351-0.28-0.814-0.42-1.396-0.42h-1.051v3.57
			L30.095,130.42L30.095,130.42z"/>
		<path d="M35.945,132.415c0-0.602,0.064-1.145,0.195-1.627c0.13-0.485,0.324-0.897,0.585-1.237c0.26-0.34,0.58-0.603,0.96-0.787
			c0.38-0.186,0.824-0.277,1.335-0.277c0.51,0,0.955,0.095,1.335,0.277c0.38,0.188,0.7,0.447,0.96,0.787
			c0.262,0.34,0.455,0.752,0.585,1.237c0.13,0.482,0.194,1.025,0.194,1.627c0,0.601-0.064,1.144-0.194,1.628
			c-0.13,0.483-0.323,0.896-0.585,1.235c-0.26,0.342-0.58,0.604-0.96,0.787c-0.38,0.188-0.825,0.278-1.335,0.278
			c-0.511,0-0.955-0.094-1.335-0.278c-0.38-0.184-0.7-0.445-0.96-0.787c-0.261-0.34-0.455-0.752-0.585-1.235
			C36.009,133.559,35.945,133.016,35.945,132.415z M37.265,132.415c0,0.972,0.144,1.696,0.428,2.183
			c0.285,0.486,0.729,0.729,1.328,0.729c0.6,0,1.042-0.242,1.327-0.729c0.284-0.481,0.428-1.211,0.428-2.183
			s-0.144-1.696-0.428-2.185c-0.285-0.482-0.729-0.729-1.327-0.729c-0.602,0-1.043,0.243-1.328,0.729
			C37.408,130.719,37.265,131.445,37.265,132.415z"/>
		<path d="M43.22,134.756c0.289,0.17,0.582,0.308,0.877,0.412c0.295,0.104,0.604,0.157,0.922,0.157c0.479,0,0.843-0.106,1.088-0.321
			c0.245-0.216,0.367-0.469,0.367-0.759c0-0.262-0.075-0.483-0.227-0.677c-0.148-0.188-0.398-0.363-0.75-0.523l-0.84-0.375
			c-0.551-0.25-0.938-0.52-1.162-0.802c-0.227-0.285-0.338-0.675-0.338-1.163c0-0.312,0.059-0.604,0.172-0.877
			c0.114-0.275,0.279-0.513,0.496-0.705c0.215-0.195,0.475-0.353,0.778-0.465c0.306-0.115,0.644-0.175,1.013-0.175
			c0.319,0,0.614,0.024,0.885,0.075c0.271,0.05,0.517,0.115,0.733,0.193l-0.061,1.08c-0.199-0.09-0.428-0.167-0.685-0.232
			c-0.255-0.062-0.526-0.098-0.815-0.098c-0.42,0-0.734,0.102-0.944,0.301c-0.21,0.201-0.314,0.449-0.314,0.75
			c0,0.312,0.109,0.562,0.33,0.75c0.221,0.189,0.541,0.371,0.961,0.541l0.448,0.18c0.472,0.189,0.841,0.441,1.11,0.76
			c0.271,0.312,0.403,0.712,0.403,1.189c0,0.33-0.045,0.641-0.135,0.931c-0.091,0.29-0.234,0.54-0.437,0.75s-0.455,0.38-0.766,0.505
			c-0.312,0.122-0.687,0.188-1.125,0.188c-0.399,0-0.774-0.041-1.125-0.119c-0.352-0.08-0.666-0.188-0.944-0.33L43.22,134.756z"/>
		<path d="M50.044,132.79c0,0.892,0.172,1.546,0.519,1.966c0.346,0.42,0.867,0.629,1.565,0.629c0.318,0,0.639-0.063,0.953-0.193
			c0.313-0.131,0.582-0.273,0.803-0.436l0.061,1.141c-0.3,0.142-0.638,0.25-1.013,0.33c-0.375,0.078-0.752,0.119-1.134,0.119
			c-0.51,0-0.953-0.092-1.334-0.277c-0.381-0.185-0.699-0.445-0.961-0.785c-0.26-0.342-0.455-0.754-0.584-1.236
			c-0.131-0.486-0.194-1.027-0.194-1.629s0.063-1.145,0.194-1.627c0.129-0.484,0.317-0.896,0.567-1.238
			c0.25-0.34,0.56-0.602,0.925-0.787c0.363-0.185,0.785-0.274,1.269-0.274c0.868,0,1.534,0.319,1.993,0.968
			c0.461,0.645,0.688,1.532,0.688,2.662v0.676h-4.317V132.79z M53.105,131.83c0-1.59-0.5-2.387-1.5-2.387
			c-0.2,0-0.395,0.04-0.577,0.12c-0.187,0.08-0.353,0.215-0.494,0.405c-0.146,0.188-0.262,0.435-0.346,0.733
			c-0.086,0.3-0.133,0.675-0.144,1.125L53.105,131.83L53.105,131.83z"/>
		<path d="M55.759,130.24c0-0.279-0.008-0.561-0.021-0.832c-0.015-0.275-0.026-0.55-0.036-0.818h1.215l0.045,1.142h0.028
			c0.2-0.438,0.462-0.759,0.78-0.953c0.319-0.192,0.705-0.292,1.153-0.292c0.671,0,1.211,0.197,1.621,0.595
			c0.41,0.396,0.615,1.013,0.615,1.853v5.312h-1.263v-4.938c0-0.607-0.106-1.053-0.321-1.327c-0.216-0.272-0.527-0.412-0.938-0.412
			c-0.5,0-0.896,0.174-1.186,0.521c-0.291,0.344-0.438,0.861-0.438,1.551v4.605h-1.261v-6.002h0.004v-0.004H55.759z"/>
		<path d="M63.289,129.115c0.319-0.2,0.666-0.354,1.035-0.467c0.369-0.109,0.744-0.165,1.125-0.165c0.279,0,0.531,0.026,0.758,0.082
			c0.227,0.058,0.422,0.12,0.592,0.194c0.171,0.076,0.312,0.152,0.43,0.232c0.115,0.079,0.203,0.148,0.265,0.21
			c0.17,0.17,0.32,0.392,0.456,0.658c0.136,0.271,0.202,0.677,0.202,1.217v3.988c0,0.229,0.006,0.446,0.016,0.651
			c0.011,0.205,0.024,0.379,0.045,0.519h-1.141l-0.074-1.033h-0.029c-0.17,0.29-0.426,0.554-0.766,0.788
			c-0.341,0.232-0.801,0.354-1.381,0.354c-0.63,0-1.154-0.184-1.574-0.549s-0.629-0.916-0.629-1.656
			c0-0.371,0.062-0.713,0.193-1.028c0.13-0.312,0.337-0.587,0.622-0.815c0.283-0.229,0.654-0.408,1.109-0.539
			s1.014-0.195,1.672-0.195h0.734v-0.346c0-0.289-0.019-0.523-0.054-0.705c-0.035-0.18-0.11-0.354-0.231-0.523
			c-0.129-0.17-0.311-0.293-0.539-0.365c-0.229-0.074-0.477-0.113-0.733-0.113c-0.392,0-0.763,0.073-1.109,0.219
			c-0.352,0.146-0.636,0.338-0.854,0.576L63.289,129.115z M66.949,132.49c-0.109-0.021-0.244-0.029-0.404-0.029
			c-0.148,0-0.312,0-0.479,0c-0.738,0-1.29,0.154-1.648,0.465s-0.541,0.686-0.541,1.125c0,0.41,0.104,0.734,0.314,0.976
			c0.21,0.242,0.534,0.358,0.977,0.358c0.271,0,0.516-0.052,0.733-0.156c0.22-0.104,0.407-0.245,0.562-0.42
			c0.154-0.176,0.272-0.381,0.357-0.615c0.085-0.232,0.129-0.48,0.129-0.74V132.49z"/>
		<path d="M75.333,134.59c0,0.28,0.008,0.559,0.021,0.834c0.016,0.274,0.026,0.547,0.037,0.816h-1.215l-0.046-1.143h-0.029
			c-0.2,0.439-0.46,0.758-0.78,0.953c-0.318,0.194-0.703,0.293-1.152,0.293c-0.672,0-1.211-0.198-1.621-0.594
			c-0.408-0.396-0.613-1.015-0.613-1.854v-5.312h1.26v4.937c0,0.61,0.106,1.055,0.322,1.327c0.216,0.275,0.525,0.412,0.938,0.412
			c0.5,0,0.896-0.172,1.188-0.518c0.291-0.348,0.437-0.863,0.437-1.555v-4.604h1.26v6.002h-0.004v0.004H75.333z"/>
	</g>
	<g>
		<path d="M11.937,107.604h2.521c0.529,0,0.97,0.068,1.319,0.21c0.351,0.142,0.665,0.34,0.945,0.602
			c0.26,0.261,0.462,0.568,0.606,0.931c0.146,0.359,0.218,0.771,0.218,1.229c0,1.028-0.288,1.808-0.862,2.33
			c-0.575,0.524-1.422,0.788-2.542,0.788h-0.886v4.382h-1.319V107.604z M13.256,112.613h0.721c0.8,0,1.364-0.173,1.694-0.518
			c0.33-0.346,0.495-0.812,0.495-1.402c0-0.721-0.189-1.233-0.569-1.545c-0.381-0.311-0.91-0.465-1.591-0.465h-0.75V112.613z"/>
		<path d="M18.851,106.823h1.26v4.647h0.03c0.17-0.319,0.413-0.592,0.729-0.817c0.314-0.225,0.696-0.337,1.146-0.337
			c0.67,0,1.21,0.197,1.619,0.595c0.41,0.396,0.615,1.013,0.615,1.853v5.312H22.99v-4.938c0-0.609-0.107-1.053-0.322-1.328
			c-0.215-0.271-0.526-0.411-0.938-0.411c-0.5,0-0.896,0.172-1.186,0.52c-0.29,0.345-0.436,0.86-0.436,1.552v4.605h-1.26
			L18.851,106.823L18.851,106.823z"/>
		<path d="M26.364,110.424l1.711,6.239h0.029l1.59-6.239h1.261l-2.235,7.771l-0.42,1.438c-0.189,0.65-0.43,1.107-0.72,1.373
			c-0.291,0.266-0.676,0.396-1.155,0.396c-0.149,0-0.303-0.009-0.458-0.021c-0.154-0.015-0.288-0.037-0.396-0.066l0.061-1.141
			c0.101,0.051,0.205,0.088,0.314,0.112c0.11,0.022,0.235,0.037,0.375,0.037c0.181,0,0.338-0.062,0.474-0.183
			c0.135-0.119,0.257-0.381,0.367-0.779l0.3-1.17l-2.415-7.771h1.319L26.364,110.424L26.364,110.424z"/>
		<path d="M31.657,116.588c0.289,0.172,0.582,0.309,0.877,0.414c0.295,0.104,0.604,0.156,0.922,0.156
			c0.479,0,0.843-0.107,1.088-0.322s0.367-0.468,0.367-0.758c0-0.262-0.075-0.484-0.226-0.677c-0.149-0.188-0.399-0.363-0.75-0.522
			l-0.84-0.375c-0.551-0.25-0.938-0.521-1.163-0.803c-0.226-0.285-0.337-0.675-0.337-1.163c0-0.312,0.058-0.604,0.172-0.877
			c0.114-0.274,0.279-0.513,0.495-0.705c0.215-0.194,0.475-0.353,0.779-0.465c0.306-0.114,0.643-0.175,1.013-0.175
			c0.319,0,0.614,0.025,0.885,0.074c0.271,0.051,0.516,0.115,0.734,0.195l-0.061,1.079c-0.199-0.09-0.427-0.167-0.683-0.231
			c-0.256-0.062-0.527-0.098-0.817-0.098c-0.42,0-0.734,0.101-0.944,0.301c-0.21,0.199-0.314,0.449-0.314,0.75
			c0,0.311,0.109,0.561,0.33,0.75c0.22,0.188,0.54,0.369,0.96,0.539l0.45,0.181c0.47,0.188,0.84,0.442,1.109,0.76
			c0.271,0.312,0.404,0.712,0.404,1.19c0,0.33-0.045,0.642-0.135,0.93c-0.091,0.29-0.235,0.54-0.436,0.75
			c-0.201,0.212-0.456,0.38-0.766,0.505c-0.311,0.124-0.686,0.188-1.125,0.188c-0.399,0-0.774-0.041-1.125-0.121
			c-0.351-0.079-0.665-0.188-0.944-0.329L31.657,116.588z"/>
		<path d="M38.736,107.273v1.5h-1.38v-1.5H38.736z M37.416,110.424h1.26v7.649h-1.26V110.424z"/>
		<path d="M40.125,114.248c0-0.602,0.063-1.145,0.193-1.627c0.131-0.484,0.325-0.896,0.585-1.238c0.261-0.34,0.58-0.602,0.96-0.787
			c0.381-0.185,0.825-0.276,1.336-0.276c0.51,0,0.954,0.095,1.336,0.276c0.379,0.188,0.698,0.447,0.959,0.787
			c0.26,0.342,0.455,0.754,0.586,1.238c0.129,0.482,0.193,1.025,0.193,1.627s-0.064,1.143-0.193,1.629
			c-0.131,0.482-0.326,0.896-0.586,1.234c-0.261,0.342-0.58,0.604-0.959,0.787c-0.382,0.188-0.826,0.277-1.336,0.277
			c-0.511,0-0.955-0.092-1.336-0.277c-0.38-0.185-0.699-0.445-0.96-0.787c-0.26-0.34-0.454-0.752-0.585-1.234
			C40.19,115.391,40.125,114.848,40.125,114.248z M41.444,114.248c0,0.971,0.145,1.696,0.43,2.184
			c0.285,0.484,0.729,0.729,1.328,0.729c0.598,0,1.041-0.241,1.325-0.729c0.285-0.482,0.429-1.213,0.429-2.184
			c0-0.972-0.144-1.697-0.429-2.185c-0.284-0.482-0.729-0.728-1.325-0.728c-0.602,0-1.043,0.242-1.328,0.728
			C41.587,112.551,41.444,113.278,41.444,114.248z"/>
		<path d="M50.937,117.983c-0.149,0.052-0.322,0.097-0.52,0.137c-0.194,0.04-0.377,0.062-0.547,0.062
			c-0.58,0-1.021-0.133-1.32-0.396c-0.299-0.268-0.447-0.736-0.447-1.417v-4.922h-1.215v-1.021h1.215v-1.562l1.26-0.375v1.938h1.574
			v1.021h-1.574v4.517c0,0.438,0.062,0.75,0.181,0.932c0.119,0.181,0.324,0.271,0.615,0.271c0.159,0,0.299-0.021,0.42-0.062
			c0.118-0.039,0.239-0.084,0.358-0.135V117.983z"/>
		<path d="M51.994,106.823h1.26v4.647h0.031c0.17-0.319,0.41-0.592,0.729-0.817c0.312-0.226,0.695-0.337,1.146-0.337
			c0.67,0,1.209,0.197,1.618,0.595c0.41,0.396,0.615,1.013,0.615,1.853v5.312h-1.262v-4.938c0-0.609-0.106-1.053-0.321-1.328
			c-0.215-0.271-0.525-0.411-0.938-0.411c-0.5,0-0.896,0.172-1.186,0.52c-0.29,0.345-0.437,0.86-0.437,1.552v4.605h-1.26v-11.251
			L51.994,106.823L51.994,106.823z"/>
		<path d="M60.105,114.623c0,0.891,0.172,1.545,0.519,1.965c0.346,0.42,0.866,0.631,1.566,0.631c0.317,0,0.639-0.064,0.952-0.194
			c0.314-0.13,0.582-0.273,0.803-0.437l0.062,1.142c-0.301,0.142-0.639,0.25-1.014,0.329c-0.375,0.08-0.753,0.121-1.133,0.121
			c-0.51,0-0.955-0.094-1.335-0.278c-0.381-0.185-0.698-0.445-0.96-0.785c-0.261-0.342-0.455-0.754-0.585-1.237
			c-0.131-0.484-0.194-1.027-0.194-1.628c0-0.602,0.063-1.145,0.194-1.627c0.13-0.485,0.318-0.897,0.568-1.237
			s0.559-0.603,0.924-0.787c0.363-0.186,0.785-0.276,1.269-0.276c0.869,0,1.534,0.321,1.994,0.969
			c0.46,0.646,0.688,1.531,0.688,2.662v0.675h-4.318V114.623z M63.164,113.663c0-1.59-0.5-2.387-1.5-2.387
			c-0.199,0-0.394,0.04-0.576,0.12c-0.188,0.08-0.353,0.215-0.496,0.404c-0.146,0.189-0.26,0.436-0.344,0.734
			c-0.086,0.301-0.135,0.676-0.145,1.125L63.164,113.663L63.164,113.663z"/>
		<path d="M65.767,112.073c0-0.28-0.01-0.56-0.021-0.832c-0.017-0.274-0.027-0.55-0.037-0.817h1.215l0.045,1.199h0.029
			c0.198-0.472,0.471-0.807,0.812-1.005c0.34-0.2,0.795-0.302,1.364-0.302v1.245c-0.149-0.028-0.312-0.046-0.479-0.046
			c-0.488,0-0.891,0.207-1.199,0.623c-0.311,0.414-0.466,1.043-0.466,1.883v4.052h-1.26L65.767,112.073L65.767,112.073z"/>
		<path d="M70.369,110.948c0.319-0.2,0.666-0.354,1.034-0.467c0.37-0.109,0.745-0.165,1.125-0.165c0.28,0,0.532,0.027,0.759,0.082
			c0.227,0.058,0.422,0.12,0.592,0.195c0.17,0.074,0.312,0.151,0.43,0.231c0.115,0.079,0.202,0.147,0.263,0.21
			c0.172,0.17,0.322,0.391,0.457,0.658c0.137,0.271,0.203,0.677,0.203,1.217v3.988c0,0.23,0.005,0.447,0.016,0.652
			c0.01,0.205,0.024,0.377,0.045,0.518h-1.141l-0.074-1.033h-0.029c-0.17,0.29-0.426,0.553-0.766,0.788
			c-0.341,0.231-0.801,0.353-1.381,0.353c-0.63,0-1.154-0.183-1.574-0.547c-0.42-0.365-0.631-0.918-0.631-1.658
			c0-0.369,0.063-0.713,0.195-1.027c0.13-0.312,0.337-0.587,0.622-0.814c0.283-0.229,0.654-0.41,1.109-0.541
			c0.455-0.13,1.014-0.193,1.672-0.193h0.733v-0.346c0-0.289-0.018-0.524-0.053-0.705s-0.112-0.354-0.231-0.524
			c-0.131-0.17-0.311-0.293-0.539-0.365c-0.229-0.075-0.477-0.112-0.733-0.112c-0.392,0-0.763,0.072-1.11,0.217
			c-0.352,0.146-0.635,0.338-0.854,0.578L70.369,110.948z M74.03,114.323c-0.109-0.021-0.244-0.03-0.404-0.03
			c-0.147,0-0.311,0-0.479,0c-0.74,0-1.29,0.155-1.649,0.465c-0.357,0.312-0.539,0.687-0.539,1.125c0,0.41,0.104,0.735,0.313,0.977
			c0.21,0.24,0.534,0.359,0.976,0.359c0.271,0,0.516-0.053,0.734-0.158c0.221-0.104,0.407-0.244,0.562-0.42
			c0.153-0.174,0.273-0.379,0.358-0.614c0.085-0.231,0.128-0.479,0.128-0.74V114.323z"/>
		<path d="M76.873,111.833c0-0.229-0.01-0.465-0.021-0.704c-0.016-0.24-0.026-0.478-0.037-0.705h1.215l0.046,1.125h0.029
			c0.079-0.149,0.177-0.297,0.292-0.442c0.113-0.146,0.255-0.275,0.42-0.396c0.165-0.119,0.354-0.215,0.562-0.285
			c0.209-0.068,0.455-0.104,0.733-0.104c0.79,0,1.429,0.324,1.912,0.977c0.484,0.648,0.729,1.637,0.729,2.955
			s-0.242,2.307-0.729,2.955c-0.483,0.648-1.122,0.977-1.912,0.977c-0.438,0-0.812-0.092-1.108-0.271
			c-0.299-0.181-0.58-0.477-0.84-0.887h-0.031v4.29h-1.26V111.833L76.873,111.833z M78.13,114.248c0,0.971,0.138,1.696,0.406,2.184
			c0.271,0.484,0.693,0.729,1.273,0.729c0.579,0,1.005-0.241,1.272-0.729c0.271-0.482,0.404-1.213,0.404-2.184
			c0-0.972-0.135-1.697-0.404-2.185c-0.271-0.482-0.693-0.728-1.272-0.728c-0.58,0-1.005,0.242-1.273,0.728
			C78.268,112.551,78.13,113.278,78.13,114.248z"/>
		<path d="M85.552,107.273v1.5h-1.381v-1.5H85.552z M84.233,110.424h1.262v7.649h-1.262V110.424z"/>
		<path d="M88.287,114.623c0,0.891,0.172,1.545,0.519,1.965c0.345,0.42,0.866,0.631,1.565,0.631c0.318,0,0.637-0.064,0.951-0.194
			c0.315-0.13,0.582-0.273,0.805-0.437l0.061,1.142c-0.3,0.142-0.639,0.25-1.014,0.329c-0.375,0.08-0.752,0.121-1.133,0.121
			c-0.511,0-0.955-0.094-1.334-0.278c-0.381-0.185-0.701-0.445-0.961-0.785c-0.262-0.342-0.455-0.754-0.584-1.237
			c-0.133-0.484-0.195-1.027-0.195-1.628c0-0.602,0.062-1.145,0.195-1.627c0.129-0.485,0.317-0.897,0.567-1.237
			s0.56-0.603,0.923-0.787c0.365-0.186,0.787-0.276,1.27-0.276c0.869,0,1.535,0.321,1.994,0.969
			c0.461,0.646,0.688,1.531,0.688,2.662v0.675h-4.317V114.623z M91.346,113.663c0-1.59-0.5-2.387-1.5-2.387
			c-0.2,0-0.394,0.04-0.577,0.12c-0.188,0.08-0.352,0.215-0.495,0.404c-0.146,0.189-0.261,0.436-0.345,0.734
			c-0.088,0.301-0.135,0.676-0.145,1.125L91.346,113.663L91.346,113.663z"/>
	</g>
</g>
<g id="wordmark">
	<g>
		<path d="M123.871,43.462h3.932c0.979,0,1.863,0.108,2.654,0.33c0.789,0.221,1.459,0.563,2.01,1.035
			c0.552,0.471,0.977,1.08,1.275,1.83c0.298,0.75,0.448,1.653,0.448,2.715c0,1.141-0.18,2.085-0.539,2.835
			c-0.36,0.75-0.819,1.354-1.381,1.813s-1.186,0.785-1.875,0.977c-0.688,0.188-1.375,0.285-2.057,0.285h-2.608v9.118h-1.859V43.462
			L123.871,43.462z M125.732,53.542h1.892c0.68,0,1.306-0.064,1.875-0.194c0.568-0.13,1.055-0.354,1.455-0.676
			c0.398-0.319,0.709-0.744,0.93-1.274c0.222-0.528,0.33-1.205,0.33-2.023c0-1.039-0.17-1.847-0.51-2.415
			c-0.342-0.569-0.762-0.984-1.262-1.245c-0.5-0.259-1.029-0.409-1.59-0.449c-0.562-0.04-1.062-0.061-1.5-0.061h-1.62V53.542
			L125.732,53.542z"/>
		<path d="M136.998,41.902h1.737v9.45h0.062c0.08-0.16,0.205-0.38,0.375-0.66c0.17-0.278,0.406-0.555,0.705-0.823
			c0.303-0.271,0.678-0.5,1.125-0.689c0.451-0.189,0.977-0.285,1.576-0.285c0.698,0,1.293,0.104,1.782,0.314
			c0.49,0.21,0.892,0.479,1.201,0.811c0.312,0.33,0.549,0.7,0.722,1.109c0.168,0.41,0.293,0.811,0.375,1.2
			c0.077,0.391,0.123,0.75,0.135,1.08c0.01,0.328,0.016,0.573,0.016,0.733v10.26h-1.74V54.082c0-0.261-0.014-0.597-0.045-1.005
			c-0.028-0.409-0.135-0.807-0.313-1.187s-0.461-0.705-0.84-0.976c-0.381-0.271-0.931-0.404-1.649-0.404
			c-0.538,0-1.024,0.115-1.454,0.345c-0.432,0.23-0.796,0.545-1.096,0.945c-0.301,0.4-0.529,0.865-0.689,1.396
			c-0.159,0.529-0.239,1.096-0.239,1.694v9.51h-1.738v-22.5L136.998,41.902L136.998,41.902z"/>
		<path d="M153.88,61.822h0.062l3.42-12.72h1.739l-4.352,15.72l-0.66,2.432c-0.139,0.521-0.283,1.01-0.436,1.471
			c-0.148,0.46-0.351,0.864-0.601,1.215c-0.25,0.352-0.569,0.625-0.961,0.825c-0.391,0.199-0.885,0.3-1.483,0.3
			c-0.238,0-0.439-0.016-0.603-0.045c-0.158-0.03-0.351-0.075-0.567-0.135l0.09-1.771c0.159,0.102,0.354,0.182,0.584,0.24
			c0.229,0.062,0.445,0.09,0.646,0.09c0.422,0,0.75-0.176,0.99-0.523c0.238-0.352,0.432-0.767,0.568-1.245l0.78-2.909l-4.5-15.66
			h1.859L153.88,61.822z"/>
		<path d="M167.656,51.082c-0.438-0.146-0.858-0.275-1.26-0.395c-0.4-0.119-0.852-0.177-1.352-0.177
			c-0.461,0-0.852,0.074-1.17,0.225s-0.59,0.347-0.812,0.585c-0.223,0.24-0.38,0.508-0.479,0.797
			c-0.101,0.29-0.147,0.563-0.147,0.823c0,0.36,0.04,0.655,0.12,0.887c0.08,0.229,0.215,0.443,0.402,0.646
			c0.189,0.2,0.455,0.4,0.797,0.602c0.341,0.198,0.771,0.438,1.289,0.72c0.521,0.28,1.012,0.551,1.472,0.811
			c0.46,0.261,0.854,0.557,1.186,0.886c0.332,0.329,0.59,0.704,0.779,1.125c0.188,0.421,0.285,0.939,0.285,1.561
			c0,0.701-0.115,1.32-0.347,1.86c-0.229,0.54-0.551,1.005-0.961,1.396s-0.891,0.687-1.438,0.885
			c-0.551,0.199-1.146,0.302-1.785,0.302c-0.959,0-1.729-0.08-2.311-0.24c-0.58-0.159-1.103-0.319-1.562-0.479l0.239-1.949
			c0.12,0.102,0.307,0.211,0.557,0.329c0.25,0.12,0.528,0.23,0.84,0.33c0.312,0.103,0.646,0.19,1.006,0.271
			c0.359,0.081,0.721,0.12,1.078,0.12c0.842,0,1.521-0.267,2.041-0.795c0.521-0.529,0.778-1.146,0.778-1.847
			c0-0.358-0.06-0.675-0.18-0.943c-0.12-0.271-0.29-0.521-0.512-0.75c-0.222-0.229-0.506-0.444-0.854-0.646
			c-0.349-0.201-0.745-0.41-1.186-0.63c-0.642-0.32-1.189-0.62-1.648-0.899c-0.461-0.279-0.836-0.579-1.125-0.899
			c-0.291-0.319-0.501-0.675-0.631-1.064c-0.131-0.391-0.195-0.854-0.195-1.396c0-0.72,0.142-1.345,0.421-1.875
			c0.279-0.529,0.635-0.97,1.064-1.319c0.43-0.349,0.91-0.609,1.438-0.779c0.528-0.171,1.057-0.256,1.573-0.256
			c0.521,0,1.052,0.051,1.591,0.149c0.541,0.101,0.949,0.2,1.229,0.301L167.656,51.082z"/>
		<path d="M171.262,42.982h2.1v2.729h-2.1V42.982z M171.442,49.102h1.74v15.3h-1.74V49.102z"/>
		<path d="M181.933,64.612c-1.12,0-2.051-0.229-2.79-0.688c-0.74-0.459-1.325-1.062-1.755-1.8c-0.432-0.739-0.735-1.579-0.915-2.521
			c-0.181-0.939-0.271-1.891-0.271-2.851s0.09-1.909,0.271-2.852c0.18-0.938,0.483-1.778,0.915-2.52
			c0.43-0.74,1.015-1.34,1.755-1.801c0.739-0.46,1.67-0.689,2.79-0.689c1.119,0,2.05,0.229,2.79,0.689
			c0.739,0.461,1.323,1.061,1.755,1.801c0.433,0.739,0.734,1.58,0.915,2.52c0.18,0.94,0.271,1.892,0.271,2.852
			s-0.092,1.91-0.271,2.851c-0.181,0.941-0.482,1.78-0.915,2.521c-0.432,0.738-1.016,1.341-1.755,1.8
			C183.983,64.383,183.053,64.612,181.933,64.612z M181.933,63.022c0.64,0,1.18-0.126,1.619-0.377s0.806-0.577,1.096-0.979
			c0.29-0.402,0.517-0.846,0.675-1.326c0.16-0.482,0.275-0.955,0.348-1.417c0.067-0.462,0.107-0.89,0.119-1.281
			c0.01-0.391,0.017-0.688,0.017-0.89c0-0.2-0.007-0.497-0.017-0.891c-0.012-0.392-0.052-0.817-0.119-1.279
			c-0.069-0.462-0.188-0.937-0.348-1.417c-0.158-0.481-0.385-0.924-0.675-1.326c-0.29-0.401-0.653-0.729-1.096-0.979
			c-0.439-0.251-0.979-0.377-1.619-0.377c-0.641,0-1.182,0.126-1.62,0.377c-0.438,0.251-0.806,0.578-1.097,0.979
			c-0.288,0.402-0.514,0.845-0.674,1.326c-0.16,0.48-0.274,0.955-0.348,1.417c-0.07,0.462-0.107,0.89-0.117,1.279
			c-0.013,0.394-0.018,0.688-0.018,0.891s0.005,0.498,0.018,0.89c0.01,0.394,0.049,0.819,0.117,1.281
			c0.07,0.462,0.188,0.935,0.348,1.417c0.16,0.48,0.385,0.924,0.674,1.326c0.291,0.4,0.656,0.729,1.097,0.979
			C180.751,62.896,181.292,63.022,181.933,63.022z"/>
		<path d="M192.968,45.502v3.601h3.121v1.62h-3.121v9.96c0,0.3,0.021,0.59,0.062,0.87c0.039,0.28,0.12,0.524,0.24,0.734
			c0.119,0.21,0.289,0.381,0.51,0.51c0.221,0.131,0.512,0.195,0.87,0.195c0.398,0,0.7-0.034,0.898-0.104
			c0.199-0.07,0.381-0.146,0.541-0.226v1.738c-0.221,0.08-0.512,0.137-0.871,0.165c-0.358,0.03-0.739,0.045-1.141,0.045
			c-0.561,0-1.022-0.101-1.396-0.3c-0.369-0.2-0.659-0.46-0.869-0.778c-0.211-0.319-0.359-0.689-0.45-1.11
			c-0.09-0.42-0.136-0.84-0.136-1.26v-10.44h-2.279v-1.62h2.279v-3.061L192.968,45.502z"/>
		<path d="M198.49,41.902h1.738v9.45h0.062c0.08-0.16,0.205-0.38,0.375-0.66c0.17-0.278,0.403-0.555,0.705-0.823
			c0.301-0.271,0.676-0.5,1.125-0.689c0.448-0.189,0.976-0.285,1.573-0.285c0.7,0,1.294,0.104,1.784,0.314
			c0.489,0.21,0.893,0.479,1.201,0.811c0.311,0.33,0.549,0.7,0.72,1.109c0.169,0.41,0.294,0.811,0.375,1.2
			c0.079,0.391,0.124,0.75,0.136,1.08c0.01,0.328,0.016,0.573,0.016,0.733v10.26h-1.739V54.082c0-0.261-0.015-0.597-0.045-1.005
			c-0.029-0.409-0.136-0.807-0.312-1.187c-0.181-0.38-0.461-0.705-0.842-0.976c-0.381-0.271-0.93-0.404-1.648-0.404
			c-0.539,0-1.024,0.115-1.455,0.345c-0.43,0.23-0.795,0.545-1.096,0.945s-0.529,0.865-0.688,1.396
			c-0.16,0.529-0.24,1.096-0.24,1.694v9.51h-1.738v-22.5L198.49,41.902L198.49,41.902z"/>
		<path d="M213.087,57.322c0,1.422,0.195,2.518,0.586,3.285c0.393,0.771,0.83,1.33,1.32,1.682c0.487,0.351,0.969,0.556,1.438,0.613
			c0.469,0.062,0.795,0.092,0.976,0.092c0.5,0,1.063-0.109,1.694-0.33c0.631-0.222,1.164-0.529,1.604-0.932l0.09,2.012
			c-0.357,0.198-0.814,0.396-1.363,0.585c-0.553,0.188-1.285,0.283-2.205,0.283c-1,0-1.848-0.158-2.535-0.479
			c-0.688-0.32-1.256-0.726-1.694-1.216c-0.438-0.489-0.778-1.039-1.021-1.649c-0.241-0.608-0.415-1.21-0.522-1.8
			c-0.111-0.59-0.178-1.125-0.195-1.605c-0.021-0.479-0.029-0.85-0.029-1.108c0-1.439,0.159-2.659,0.479-3.659
			c0.319-1,0.739-1.811,1.262-2.431c0.521-0.619,1.105-1.069,1.755-1.352c0.649-0.278,1.295-0.42,1.938-0.42
			c1.1,0,1.975,0.267,2.625,0.795c0.648,0.53,1.146,1.205,1.482,2.024c0.34,0.82,0.559,1.729,0.646,2.729
			c0.09,1,0.135,1.96,0.135,2.881H213.087L213.087,57.322z M219.691,55.702c0-1.021-0.096-1.859-0.285-2.521
			c-0.19-0.66-0.436-1.188-0.735-1.59c-0.299-0.4-0.635-0.68-1.004-0.841c-0.371-0.159-0.734-0.239-1.097-0.239
			c-0.6,0-1.114,0.18-1.545,0.54c-0.43,0.359-0.791,0.8-1.08,1.319c-0.289,0.521-0.506,1.08-0.646,1.681
			c-0.141,0.6-0.211,1.15-0.211,1.649L219.691,55.702L219.691,55.702z"/>
		<path d="M224.416,53.843c0-0.8-0.017-1.591-0.045-2.37c-0.031-0.78-0.058-1.57-0.076-2.37h1.621
			c0.021,0.46,0.039,0.899,0.061,1.319c0.021,0.421,0.04,0.791,0.062,1.11h0.062c0.278-0.54,0.569-0.984,0.868-1.337
			c0.302-0.35,0.621-0.617,0.961-0.81c0.341-0.191,0.695-0.32,1.064-0.391c0.368-0.069,0.766-0.104,1.186-0.104v1.859
			c-1.381,0-2.396,0.313-3.045,0.943c-0.649,0.632-0.975,1.655-0.975,3.075v9.63h-1.74L224.416,53.843L224.416,53.843z"/>
		<path d="M241.63,60.982c0,0.58,0.021,1.15,0.062,1.71c0.039,0.562,0.079,1.13,0.119,1.71h-1.561l-0.121-2.188h-0.061
			c-0.521,0.841-1.113,1.451-1.783,1.83c-0.673,0.38-1.507,0.568-2.507,0.568c-0.601,0-1.153-0.113-1.663-0.345
			c-0.512-0.229-0.962-0.545-1.353-0.945c-0.391-0.397-0.694-0.868-0.915-1.408c-0.222-0.54-0.329-1.119-0.329-1.74
			c0-0.819,0.129-1.51,0.392-2.069c0.26-0.56,0.604-1.022,1.033-1.396c0.432-0.369,0.909-0.654,1.439-0.854
			c0.528-0.2,1.069-0.35,1.618-0.45c0.552-0.1,1.08-0.158,1.592-0.18c0.511-0.02,0.943-0.03,1.306-0.03h1.109
			c0-0.479-0.017-0.993-0.046-1.545c-0.029-0.55-0.146-1.055-0.346-1.515c-0.2-0.46-0.517-0.845-0.945-1.155
			c-0.43-0.31-1.045-0.465-1.844-0.465c-0.521,0-1,0.072-1.439,0.216c-0.438,0.146-0.83,0.31-1.17,0.49
			c-0.342,0.182-0.62,0.355-0.842,0.52c-0.219,0.163-0.351,0.267-0.391,0.306l-0.271-1.8c0.721-0.399,1.391-0.727,2.011-0.977
			c0.619-0.25,1.352-0.375,2.188-0.375c1.181,0,2.09,0.21,2.729,0.63c0.64,0.42,1.104,0.915,1.396,1.485
			c0.289,0.569,0.459,1.135,0.511,1.694c0.05,0.561,0.073,0.979,0.073,1.26v7.02L241.63,60.982L241.63,60.982z M240.012,56.692
			c-0.899,0-1.75,0.021-2.552,0.062c-0.799,0.041-1.504,0.165-2.113,0.375c-0.61,0.21-1.092,0.556-1.438,1.035
			c-0.352,0.479-0.525,1.148-0.525,2.01c0,0.32,0.062,0.648,0.182,0.99c0.12,0.341,0.302,0.646,0.54,0.915
			c0.239,0.271,0.535,0.488,0.887,0.658c0.35,0.172,0.754,0.257,1.215,0.257c0.198,0,0.51-0.04,0.93-0.12
			c0.422-0.079,0.847-0.271,1.275-0.569c0.43-0.301,0.805-0.75,1.125-1.351c0.318-0.602,0.479-1.42,0.479-2.46L240.012,56.692
			L240.012,56.692z"/>
		<path d="M245.169,54.172c0-1.199-0.01-2.18-0.028-2.939c-0.021-0.76-0.052-1.47-0.091-2.13h1.619v2.25h0.062
			c0.521-0.8,1.101-1.41,1.739-1.83s1.399-0.63,2.278-0.63c0.819,0,1.521,0.155,2.102,0.465c0.58,0.312,1.062,0.71,1.439,1.2
			s0.681,1.03,0.898,1.62c0.221,0.59,0.387,1.154,0.494,1.694c0.108,0.54,0.175,1.023,0.194,1.455
			c0.021,0.431,0.028,0.733,0.028,0.915c0,1.078-0.096,2.125-0.284,3.135c-0.188,1.011-0.483,1.905-0.886,2.686
			c-0.399,0.78-0.92,1.4-1.561,1.859c-0.641,0.461-1.422,0.688-2.342,0.688s-1.705-0.186-2.354-0.555
			c-0.649-0.37-1.153-0.896-1.518-1.575H246.9v8.4h-1.738v-16.71L245.169,54.172L245.169,54.172z M254.05,56.752
			c0-0.199-0.006-0.494-0.016-0.885c-0.012-0.392-0.052-0.819-0.119-1.29c-0.069-0.472-0.17-0.944-0.302-1.427
			c-0.131-0.479-0.323-0.915-0.585-1.305c-0.261-0.391-0.591-0.71-0.988-0.96c-0.399-0.25-0.893-0.375-1.472-0.375
			c-0.739,0-1.354,0.17-1.846,0.51s-0.875,0.79-1.154,1.352c-0.278,0.561-0.479,1.205-0.601,1.936
			c-0.121,0.731-0.181,1.484-0.181,2.267c0,0.521,0.021,1.146,0.061,1.875c0.04,0.729,0.175,1.431,0.404,2.1
			c0.229,0.671,0.602,1.245,1.108,1.726c0.511,0.479,1.234,0.722,2.177,0.722c0.659,0,1.209-0.16,1.648-0.479
			c0.438-0.32,0.799-0.76,1.079-1.32c0.279-0.56,0.479-1.22,0.603-1.979C253.992,58.452,254.05,57.633,254.05,56.752z"/>
		<path d="M258.751,42.982h2.102v2.729h-2.102V42.982z M258.933,49.102h1.738v15.3h-1.738V49.102z"/>
		<path d="M265.552,57.322c0,1.422,0.195,2.518,0.586,3.285c0.391,0.771,0.828,1.33,1.318,1.682
			c0.488,0.351,0.971,0.556,1.438,0.613c0.469,0.061,0.796,0.092,0.978,0.092c0.5,0,1.062-0.109,1.693-0.33
			c0.63-0.222,1.164-0.529,1.604-0.932l0.091,2.012c-0.359,0.198-0.815,0.396-1.365,0.585c-0.55,0.188-1.285,0.283-2.204,0.283
			c-1.001,0-1.846-0.158-2.535-0.479c-0.688-0.32-1.256-0.726-1.694-1.216c-0.438-0.489-0.778-1.039-1.021-1.649
			c-0.239-0.608-0.416-1.21-0.524-1.8s-0.176-1.125-0.193-1.605c-0.021-0.479-0.029-0.85-0.029-1.108
			c0-1.439,0.159-2.659,0.479-3.659s0.74-1.811,1.262-2.431c0.521-0.619,1.104-1.069,1.755-1.352c0.649-0.278,1.295-0.42,1.938-0.42
			c1.101,0,1.976,0.267,2.625,0.795c0.647,0.53,1.146,1.205,1.482,2.024c0.342,0.82,0.557,1.729,0.646,2.729
			c0.092,1,0.137,1.96,0.137,2.881H265.552L265.552,57.322z M272.154,55.702c0-1.021-0.096-1.859-0.284-2.521
			c-0.188-0.66-0.437-1.188-0.734-1.59s-0.635-0.68-1.006-0.841c-0.369-0.159-0.733-0.239-1.094-0.239
			c-0.603,0-1.115,0.18-1.547,0.54c-0.431,0.359-0.791,0.8-1.078,1.319c-0.291,0.521-0.508,1.08-0.646,1.681
			c-0.141,0.6-0.21,1.15-0.21,1.649L272.154,55.702L272.154,55.702z"/>
		<path d="M284.841,43.462h4.83c0.898,0,1.695,0.136,2.387,0.405c0.688,0.271,1.271,0.646,1.738,1.125
			c0.471,0.479,0.82,1.046,1.052,1.693c0.229,0.65,0.345,1.354,0.345,2.115c0,0.899-0.13,1.654-0.391,2.265
			c-0.262,0.61-0.596,1.11-1.006,1.5c-0.409,0.392-0.854,0.688-1.336,0.887c-0.479,0.198-0.938,0.341-1.379,0.42v0.061
			c0.141,0.04,0.312,0.09,0.51,0.149c0.199,0.061,0.398,0.153,0.602,0.285c0.199,0.131,0.392,0.306,0.569,0.523
			c0.181,0.22,0.329,0.5,0.448,0.84l3.149,8.67h-1.979l-2.551-7.17c-0.16-0.479-0.326-0.88-0.496-1.198
			c-0.17-0.319-0.357-0.587-0.567-0.797s-0.45-0.358-0.722-0.448c-0.271-0.092-0.596-0.137-0.977-0.137h-2.369v9.75h-1.859
			L284.841,43.462L284.841,43.462z M286.703,52.912h2.549c0.939,0,1.676-0.182,2.205-0.54c0.529-0.359,0.926-0.774,1.188-1.245
			c0.26-0.47,0.42-0.919,0.479-1.352c0.062-0.43,0.09-0.725,0.09-0.885c0-0.858-0.147-1.535-0.447-2.023
			c-0.303-0.489-0.665-0.859-1.098-1.109c-0.431-0.25-0.879-0.405-1.351-0.466c-0.47-0.062-0.864-0.09-1.186-0.09h-2.432
			L286.703,52.912L286.703,52.912z"/>
		<path d="M303.812,64.612c-1.12,0-2.05-0.229-2.79-0.688c-0.738-0.459-1.325-1.062-1.755-1.8c-0.432-0.739-0.733-1.579-0.915-2.521
			c-0.181-0.939-0.271-1.891-0.271-2.851s0.09-1.909,0.271-2.852c0.18-0.938,0.483-1.778,0.915-2.52
			c0.43-0.74,1.017-1.34,1.755-1.801c0.739-0.46,1.67-0.689,2.79-0.689s2.05,0.229,2.79,0.689c0.737,0.461,1.323,1.061,1.755,1.801
			c0.431,0.739,0.734,1.58,0.915,2.52c0.182,0.94,0.271,1.892,0.271,2.852s-0.09,1.91-0.271,2.851
			c-0.181,0.941-0.484,1.78-0.915,2.521c-0.432,0.738-1.018,1.341-1.755,1.8C305.862,64.383,304.932,64.612,303.812,64.612z
			 M303.812,63.022c0.642,0,1.181-0.126,1.62-0.377c0.438-0.251,0.805-0.577,1.095-0.979c0.29-0.402,0.517-0.846,0.677-1.326
			c0.158-0.482,0.273-0.955,0.346-1.417c0.068-0.462,0.109-0.89,0.119-1.281c0.011-0.392,0.017-0.688,0.017-0.89
			c0-0.2-0.006-0.497-0.017-0.891c-0.01-0.392-0.051-0.817-0.119-1.279c-0.069-0.462-0.188-0.937-0.346-1.417
			c-0.16-0.481-0.387-0.924-0.677-1.326c-0.29-0.401-0.653-0.729-1.095-0.979c-0.439-0.251-0.979-0.377-1.62-0.377
			c-0.643,0-1.182,0.126-1.62,0.377c-0.439,0.251-0.805,0.578-1.095,0.979c-0.29,0.402-0.518,0.845-0.676,1.326
			c-0.159,0.48-0.274,0.955-0.346,1.417c-0.072,0.462-0.109,0.89-0.119,1.279c-0.013,0.394-0.018,0.688-0.018,0.891
			s0.005,0.498,0.018,0.89c0.01,0.394,0.049,0.819,0.119,1.281c0.068,0.462,0.187,0.935,0.346,1.417
			c0.158,0.48,0.386,0.924,0.676,1.326c0.289,0.4,0.652,0.729,1.095,0.979C302.63,62.896,303.169,63.022,303.812,63.022z"/>
		<path d="M318.841,51.082c-0.439-0.146-0.859-0.275-1.26-0.395c-0.399-0.118-0.853-0.177-1.353-0.177
			c-0.46,0-0.852,0.074-1.17,0.225c-0.32,0.151-0.592,0.347-0.811,0.585c-0.223,0.24-0.381,0.508-0.479,0.797
			c-0.103,0.29-0.148,0.563-0.148,0.823c0,0.36,0.039,0.655,0.118,0.887c0.08,0.229,0.216,0.443,0.405,0.646
			c0.188,0.201,0.455,0.4,0.795,0.602c0.34,0.198,0.771,0.438,1.29,0.72c0.521,0.28,1.01,0.551,1.472,0.811
			c0.459,0.261,0.854,0.557,1.186,0.886c0.33,0.329,0.591,0.704,0.779,1.125s0.285,0.939,0.285,1.561c0,0.701-0.115,1.32-0.347,1.86
			c-0.23,0.54-0.55,1.005-0.96,1.396s-0.892,0.687-1.438,0.885c-0.553,0.199-1.146,0.302-1.785,0.302
			c-0.961,0-1.729-0.08-2.312-0.24c-0.58-0.159-1.101-0.319-1.562-0.479l0.24-1.949c0.121,0.102,0.305,0.211,0.555,0.329
			c0.25,0.12,0.529,0.23,0.842,0.33c0.312,0.103,0.646,0.19,1.005,0.271c0.359,0.081,0.723,0.12,1.08,0.12
			c0.84,0,1.521-0.267,2.04-0.795c0.52-0.529,0.779-1.146,0.779-1.847c0-0.358-0.062-0.675-0.18-0.943
			c-0.121-0.271-0.291-0.521-0.513-0.75c-0.22-0.229-0.505-0.444-0.854-0.646c-0.353-0.2-0.746-0.41-1.188-0.63
			c-0.642-0.32-1.188-0.62-1.648-0.899s-0.836-0.579-1.125-0.899c-0.289-0.319-0.5-0.675-0.629-1.064
			c-0.133-0.391-0.195-0.854-0.195-1.396c0-0.72,0.141-1.345,0.421-1.875c0.278-0.529,0.635-0.97,1.062-1.319
			c0.431-0.35,0.909-0.609,1.439-0.779c0.529-0.171,1.055-0.256,1.574-0.256c0.521,0,1.051,0.051,1.591,0.149
			c0.54,0.101,0.948,0.2,1.229,0.301L318.841,51.082z"/>
		<path d="M323.958,57.322c0,1.422,0.193,2.518,0.584,3.285c0.393,0.771,0.83,1.33,1.319,1.682c0.489,0.351,0.972,0.556,1.438,0.613
			c0.471,0.061,0.798,0.092,0.978,0.092c0.5,0,1.063-0.109,1.695-0.33c0.63-0.222,1.164-0.529,1.604-0.932l0.09,2.012
			c-0.358,0.198-0.814,0.396-1.364,0.585c-0.552,0.188-1.285,0.283-2.204,0.283c-1.001,0-1.848-0.158-2.535-0.479
			c-0.688-0.32-1.256-0.726-1.694-1.216c-0.438-0.489-0.779-1.039-1.021-1.649c-0.24-0.608-0.416-1.21-0.524-1.8
			c-0.109-0.59-0.177-1.125-0.195-1.605c-0.021-0.479-0.027-0.85-0.027-1.108c0-1.439,0.158-2.659,0.479-3.659
			c0.318-1,0.738-1.811,1.26-2.431c0.521-0.619,1.104-1.069,1.757-1.352c0.649-0.278,1.295-0.42,1.937-0.42
			c1.101,0,1.976,0.267,2.625,0.795c0.648,0.53,1.146,1.205,1.483,2.024c0.34,0.82,0.557,1.729,0.646,2.729s0.135,1.96,0.135,2.881
			H323.958L323.958,57.322z M330.56,55.702c0-1.021-0.098-1.859-0.285-2.521c-0.188-0.66-0.438-1.188-0.733-1.59
			c-0.302-0.4-0.637-0.68-1.006-0.841c-0.369-0.159-0.734-0.239-1.096-0.239c-0.603,0-1.113,0.18-1.545,0.54
			c-0.433,0.359-0.791,0.8-1.08,1.319c-0.29,0.521-0.506,1.08-0.646,1.681c-0.142,0.6-0.211,1.15-0.211,1.649L330.56,55.702
			L330.56,55.702z"/>
		<path d="M335.285,53.843c0-0.8-0.017-1.591-0.047-2.37c-0.029-0.78-0.056-1.57-0.074-2.37h1.621c0.039,0.34,0.062,0.66,0.073,0.96
			s0.023,0.73,0.045,1.29h0.062c0.08-0.16,0.209-0.38,0.392-0.66c0.182-0.278,0.426-0.555,0.733-0.823
			c0.312-0.271,0.688-0.5,1.142-0.689c0.449-0.188,0.994-0.285,1.637-0.285c0.698,0,1.295,0.104,1.783,0.314
			c0.489,0.21,0.891,0.479,1.2,0.811c0.312,0.33,0.55,0.7,0.72,1.109c0.172,0.41,0.297,0.811,0.375,1.2
			c0.079,0.391,0.124,0.75,0.137,1.08c0.01,0.328,0.016,0.573,0.016,0.733v10.26h-1.739V54.083c0-0.26-0.017-0.597-0.045-1.005
			c-0.029-0.409-0.138-0.807-0.314-1.187c-0.18-0.38-0.459-0.705-0.84-0.976c-0.381-0.271-0.931-0.404-1.65-0.404
			c-0.539,0-1.023,0.115-1.454,0.345c-0.431,0.23-0.796,0.545-1.095,0.945c-0.301,0.4-0.53,0.865-0.689,1.396
			c-0.16,0.528-0.239,1.095-0.239,1.693v9.51h-1.738v-10.56L335.285,53.843L335.285,53.843z"/>
		<path d="M357.878,60.982c0,0.58,0.021,1.15,0.062,1.71c0.039,0.562,0.079,1.13,0.119,1.71H356.5l-0.121-2.188h-0.061
			c-0.521,0.841-1.113,1.451-1.783,1.83c-0.673,0.38-1.507,0.568-2.507,0.568c-0.602,0-1.153-0.113-1.665-0.345
			c-0.51-0.229-0.96-0.545-1.351-0.945c-0.391-0.397-0.694-0.868-0.915-1.408c-0.222-0.54-0.329-1.119-0.329-1.74
			c0-0.819,0.129-1.51,0.392-2.069c0.26-0.56,0.604-1.022,1.033-1.396c0.432-0.369,0.909-0.654,1.438-0.854s1.07-0.35,1.619-0.45
			c0.551-0.1,1.08-0.158,1.59-0.18c0.513-0.02,0.945-0.03,1.308-0.03h1.108c0-0.479-0.017-0.993-0.045-1.545
			c-0.029-0.55-0.146-1.055-0.347-1.515c-0.199-0.46-0.516-0.845-0.944-1.155c-0.431-0.31-1.045-0.465-1.845-0.465
			c-0.521,0-1,0.072-1.44,0.216c-0.438,0.146-0.828,0.31-1.17,0.49c-0.34,0.182-0.618,0.355-0.84,0.52
			c-0.221,0.163-0.351,0.267-0.391,0.306l-0.271-1.8c0.722-0.399,1.392-0.727,2.012-0.977c0.617-0.25,1.35-0.375,2.188-0.375
			c1.18,0,2.09,0.21,2.729,0.63s1.104,0.915,1.396,1.485c0.291,0.569,0.461,1.135,0.51,1.694c0.052,0.561,0.076,0.979,0.076,1.26
			v7.02L357.878,60.982L357.878,60.982z M356.259,56.692c-0.898,0-1.75,0.021-2.551,0.062c-0.799,0.041-1.504,0.165-2.113,0.375
			c-0.61,0.21-1.092,0.556-1.439,1.035c-0.351,0.479-0.524,1.148-0.524,2.01c0,0.32,0.062,0.648,0.182,0.99
			c0.12,0.341,0.301,0.646,0.54,0.915c0.239,0.271,0.535,0.488,0.886,0.658c0.351,0.172,0.755,0.257,1.216,0.257
			c0.198,0,0.51-0.04,0.93-0.12c0.421-0.079,0.847-0.271,1.275-0.569c0.43-0.301,0.805-0.75,1.125-1.351
			c0.318-0.602,0.479-1.42,0.479-2.46L356.259,56.692L356.259,56.692z"/>
		<path d="M371.193,59.662c0,0.801,0.017,1.59,0.045,2.37c0.03,0.778,0.058,1.568,0.075,2.368h-1.62
			c-0.04-0.34-0.063-0.658-0.073-0.96c-0.012-0.3-0.023-0.729-0.045-1.29h-0.062c-0.04,0.16-0.15,0.382-0.33,0.66
			c-0.182,0.28-0.426,0.557-0.733,0.825c-0.312,0.271-0.701,0.5-1.172,0.689c-0.47,0.188-1.023,0.283-1.665,0.283
			c-0.84,0-1.528-0.14-2.067-0.42c-0.541-0.278-0.972-0.646-1.291-1.095c-0.318-0.45-0.545-0.965-0.674-1.545
			c-0.132-0.58-0.195-1.17-0.195-1.771V49.1h1.74v10.319c0,0.261,0.016,0.596,0.045,1.006s0.136,0.805,0.312,1.185
			c0.182,0.382,0.46,0.705,0.842,0.977c0.379,0.271,0.93,0.405,1.648,0.405c0.54,0,1.022-0.114,1.454-0.347
			c0.431-0.229,0.796-0.545,1.096-0.943c0.302-0.399,0.529-0.864,0.689-1.396s0.24-1.096,0.24-1.695V49.1h1.737L371.193,59.662
			L371.193,59.662z"/>
	</g>
</g>
</svg>

